<mxfile host="app.diagrams.net" modified="2021-08-17T00:43:28.065Z" agent="5.0 (Windows NT 10.0; Win64; x64) AppleWebKit/537.36 (KHTML, like Gecko) Chrome/92.0.4515.131 Safari/537.36" etag="_5LXl8t4BZcXbWJ9mCK9" version="14.7.3" type="github">
  <diagram id="AVtjTKMIFDk7ljcUNJh0" name="Page-1">
    <mxGraphModel dx="1038" dy="547" grid="1" gridSize="10" guides="1" tooltips="1" connect="1" arrows="1" fold="1" page="1" pageScale="1" pageWidth="850" pageHeight="1100" math="0" shadow="0">
      <root>
        <mxCell id="0" />
        <mxCell id="1" parent="0" />
        <mxCell id="qNKYc2l9w20dk-UfvvcM-10" style="edgeStyle=orthogonalEdgeStyle;rounded=0;orthogonalLoop=1;jettySize=auto;html=1;exitX=0.5;exitY=1;exitDx=0;exitDy=0;entryX=0.5;entryY=0;entryDx=0;entryDy=0;" edge="1" parent="1" source="qNKYc2l9w20dk-UfvvcM-1" target="qNKYc2l9w20dk-UfvvcM-9">
          <mxGeometry relative="1" as="geometry" />
        </mxCell>
        <mxCell id="qNKYc2l9w20dk-UfvvcM-1" value="" style="rounded=1;whiteSpace=wrap;html=1;" vertex="1" parent="1">
          <mxGeometry x="110" y="60" width="190" height="160" as="geometry" />
        </mxCell>
        <mxCell id="qNKYc2l9w20dk-UfvvcM-7" style="edgeStyle=orthogonalEdgeStyle;rounded=0;orthogonalLoop=1;jettySize=auto;html=1;exitX=1;exitY=0.5;exitDx=0;exitDy=0;entryX=0;entryY=0.5;entryDx=0;entryDy=0;" edge="1" parent="1" source="qNKYc2l9w20dk-UfvvcM-2" target="qNKYc2l9w20dk-UfvvcM-3">
          <mxGeometry relative="1" as="geometry" />
        </mxCell>
        <mxCell id="qNKYc2l9w20dk-UfvvcM-2" value="Are you a customer?" style="text;html=1;strokeColor=none;fillColor=none;align=center;verticalAlign=middle;whiteSpace=wrap;rounded=0;" vertex="1" parent="1">
          <mxGeometry x="120" y="70" width="170" height="140" as="geometry" />
        </mxCell>
        <mxCell id="qNKYc2l9w20dk-UfvvcM-3" value="" style="rounded=1;whiteSpace=wrap;html=1;" vertex="1" parent="1">
          <mxGeometry x="370" y="80" width="150" height="120" as="geometry" />
        </mxCell>
        <mxCell id="qNKYc2l9w20dk-UfvvcM-11" style="edgeStyle=orthogonalEdgeStyle;rounded=0;orthogonalLoop=1;jettySize=auto;html=1;exitX=0.5;exitY=1;exitDx=0;exitDy=0;entryX=0.75;entryY=0;entryDx=0;entryDy=0;" edge="1" parent="1" source="qNKYc2l9w20dk-UfvvcM-4" target="qNKYc2l9w20dk-UfvvcM-9">
          <mxGeometry relative="1" as="geometry" />
        </mxCell>
        <mxCell id="qNKYc2l9w20dk-UfvvcM-4" value="create new prospect" style="text;html=1;strokeColor=none;fillColor=none;align=center;verticalAlign=middle;whiteSpace=wrap;rounded=0;" vertex="1" parent="1">
          <mxGeometry x="380" y="90" width="130" height="100" as="geometry" />
        </mxCell>
        <mxCell id="qNKYc2l9w20dk-UfvvcM-8" style="edgeStyle=orthogonalEdgeStyle;rounded=0;orthogonalLoop=1;jettySize=auto;html=1;exitX=0.5;exitY=1;exitDx=0;exitDy=0;entryX=0.454;entryY=-0.033;entryDx=0;entryDy=0;entryPerimeter=0;" edge="1" parent="1" source="qNKYc2l9w20dk-UfvvcM-5" target="qNKYc2l9w20dk-UfvvcM-2">
          <mxGeometry relative="1" as="geometry" />
        </mxCell>
        <mxCell id="qNKYc2l9w20dk-UfvvcM-5" value="" style="rounded=1;whiteSpace=wrap;html=1;" vertex="1" parent="1">
          <mxGeometry x="140" y="10" width="120" height="40" as="geometry" />
        </mxCell>
        <mxCell id="qNKYc2l9w20dk-UfvvcM-6" value="Inquiry" style="text;html=1;strokeColor=none;fillColor=none;align=center;verticalAlign=middle;whiteSpace=wrap;rounded=0;" vertex="1" parent="1">
          <mxGeometry x="150" y="20" width="100" height="20" as="geometry" />
        </mxCell>
        <mxCell id="qNKYc2l9w20dk-UfvvcM-15" style="edgeStyle=orthogonalEdgeStyle;rounded=0;orthogonalLoop=1;jettySize=auto;html=1;exitX=0.5;exitY=1;exitDx=0;exitDy=0;entryX=0.5;entryY=0;entryDx=0;entryDy=0;" edge="1" parent="1" source="qNKYc2l9w20dk-UfvvcM-9" target="qNKYc2l9w20dk-UfvvcM-13">
          <mxGeometry relative="1" as="geometry" />
        </mxCell>
        <mxCell id="qNKYc2l9w20dk-UfvvcM-9" value="" style="rounded=1;whiteSpace=wrap;html=1;" vertex="1" parent="1">
          <mxGeometry x="120" y="280" width="170" height="100" as="geometry" />
        </mxCell>
        <mxCell id="qNKYc2l9w20dk-UfvvcM-12" value="Create Interaction" style="text;html=1;strokeColor=none;fillColor=none;align=center;verticalAlign=middle;whiteSpace=wrap;rounded=0;" vertex="1" parent="1">
          <mxGeometry x="130" y="290" width="150" height="80" as="geometry" />
        </mxCell>
        <mxCell id="qNKYc2l9w20dk-UfvvcM-13" value="" style="rounded=1;whiteSpace=wrap;html=1;" vertex="1" parent="1">
          <mxGeometry x="120" y="410" width="170" height="90" as="geometry" />
        </mxCell>
        <mxCell id="qNKYc2l9w20dk-UfvvcM-14" value="Link interaction to customer/prospect" style="text;html=1;strokeColor=none;fillColor=none;align=center;verticalAlign=middle;whiteSpace=wrap;rounded=0;" vertex="1" parent="1">
          <mxGeometry x="130" y="420" width="150" height="70" as="geometry" />
        </mxCell>
        <mxCell id="qNKYc2l9w20dk-UfvvcM-16" value="Questions for Product&lt;br&gt;&lt;br&gt;&lt;br&gt;" style="text;html=1;strokeColor=none;fillColor=none;align=center;verticalAlign=middle;whiteSpace=wrap;rounded=0;" vertex="1" parent="1">
          <mxGeometry x="600" y="40" width="200" height="280" as="geometry" />
        </mxCell>
      </root>
    </mxGraphModel>
  </diagram>
</mxfile>
